<svg width="709" height="990" viewBox="0 0 709 990" fill="none" xmlns="http://www.w3.org/2000/svg">
<path d="M365.918 795.034V989.23H418.356V929.9H449.425C497.694 929.9 528.732 911.43 528.732 862.46C528.732 813.49 497.694 795.034 449.425 795.034H365.918ZM444.12 889.33H418.326V835.59H444.12C465.474 835.59 474.351 843.42 474.351 862.46C474.351 881.5 465.489 889.33 444.12 889.33Z" fill="black"/>
<path d="M534.426 795.034V840.37H595.158V989.23H647.597V840.37H708.359V795.034H534.426Z" fill="black"/>
<path d="M250.999 911.73H338.899V869.74H250.999V839.24H348.628V795.019H198.575V989.22H351.108V945H250.984V911.72H251.014L250.999 911.73Z" fill="black"/>
<path d="M80.697 795.034H0V989.23H80.697C156.12 989.23 185.828 946.97 185.828 892.11C185.828 837.25 156.149 795.034 80.697 795.034ZM79.89 944.74H52.408V839.52H79.89C109.539 839.52 130.894 853.79 130.894 892.11C130.894 930.43 109.539 944.7 79.89 944.7V944.74Z" fill="black"/>
<path d="M698.69 965.65C698.69 961.08 695.776 958.94 690.77 958.94H679.427V979.34H685.584V972.63H689.111L692.802 979.34H699.497L695.029 971.42C697.091 970.57 698.645 968.23 698.645 965.65H698.69ZM689.425 968.05H685.629V963.75H689.425C691.382 963.75 692.443 964.26 692.443 965.72C692.443 967.35 691.397 968.07 689.425 968.07V968.05Z" fill="black"/>
<path d="M688.648 949.88C677.813 949.88 669.041 958.76 669.041 969.61C669.041 980.46 677.813 989.23 688.648 989.23C699.482 989.23 708.344 980.46 708.344 969.61C708.344 958.76 699.482 949.88 688.648 949.88ZM688.648 985.78C679.875 985.78 672.837 978.56 672.837 969.58C672.837 960.6 679.875 953.31 688.648 953.31C697.42 953.31 704.563 960.63 704.563 969.58C704.563 978.53 697.45 985.78 688.648 985.78Z" fill="black"/>
<path d="M708.104 301.689V396.239H508.632L670.67 514.027L616.154 591.123L453.161 472.558L516.164 666.725L427.173 697.943L375.616 539.088C371.581 526.386 369.624 512.862 369.624 499.113C369.624 440.862 404.936 378.276 468.628 353.948V343.995C404.936 319.666 369.624 257.066 369.624 198.829C369.624 185.081 371.596 171.557 375.616 158.854L427.173 0L516.164 31.218L453.161 225.385L616.154 106.819L670.67 183.915L508.632 301.704H708.104V301.689Z" fill="black"/>
<path d="M0.239014 301.689V396.224H199.711L37.674 514.027L92.189 591.123L255.183 472.558L192.179 666.71L281.17 697.943L332.727 539.088C336.762 526.386 338.72 512.862 338.72 499.113C338.72 440.862 303.407 378.276 239.716 353.948V343.995C303.407 319.666 338.72 257.066 338.72 198.829C338.72 185.081 336.747 171.557 332.727 158.854L281.17 0L192.179 31.218L255.183 225.385L92.189 106.819L37.674 183.915L199.711 301.704H0.239014V301.689Z" fill="black"/>
</svg>
