<svg width="1200" height="630" viewBox="0 0 1200 630" fill="none" xmlns="http://www.w3.org/2000/svg">
  <rect width="1200" height="630" fill="#15110E"/>
  <rect x="0" y="0" width="1200" height="10" fill="#FF4900"/>
  <!-- DEPT asterisk mark, ochre, top-left -->
  <g transform="translate(80 80) scale(0.13)">
    <path d="M708.104 301.689V396.239H508.632L670.67 514.027L616.154 591.123L453.161 472.558L516.164 666.725L427.173 697.943L375.616 539.088C371.581 526.386 369.624 512.862 369.624 499.113C369.624 440.862 404.936 378.276 468.628 353.948V343.995C404.936 319.666 369.624 257.066 369.624 198.829C369.624 185.081 371.596 171.557 375.616 158.854L427.173 0L516.164 31.218L453.161 225.385L616.154 106.819L670.67 183.915L508.632 301.704H708.104V301.689Z" fill="#FF4900"/>
    <path d="M0.239014 301.689V396.224H199.711L37.674 514.027L92.189 591.123L255.183 472.558L192.179 666.71L281.17 697.943L332.727 539.088C336.762 526.386 338.72 512.862 338.72 499.113C338.72 440.862 303.407 378.276 239.716 353.948V343.995C303.407 319.666 338.72 257.066 338.72 198.829C338.72 185.081 336.747 171.557 332.727 158.854L281.17 0L192.179 31.218L255.183 225.385L92.189 106.819L37.674 183.915L199.711 301.704H0.239014V301.689Z" fill="#FF4900"/>
  </g>
  <text x="80" y="430" font-family="Syne, sans-serif" font-size="88" font-weight="800" fill="#F4F0E8" letter-spacing="-2">Anatomy of Code</text>
  <text x="80" y="500" font-family="DM Sans, sans-serif" font-size="36" font-weight="500" fill="#FF4900">v2 platform documentation</text>
  <text x="80" y="560" font-family="JetBrains Mono, monospace" font-size="24" font-weight="400" fill="#9A9286">DEPT® · CODE-CODER framework · architect reference</text>
</svg>
